<?xml version="1.0" encoding="UTF-8" standalone="no"?>
<!-- Created with Inkscape (http://www.inkscape.org/) -->
<svg
   xmlns:dc="http://purl.org/dc/elements/1.1/"
   xmlns:cc="http://creativecommons.org/ns#"
   xmlns:rdf="http://www.w3.org/1999/02/22-rdf-syntax-ns#"
   xmlns:svg="http://www.w3.org/2000/svg"
   xmlns="http://www.w3.org/2000/svg"
   xmlns:xlink="http://www.w3.org/1999/xlink"
   xmlns:sodipodi="http://sodipodi.sourceforge.net/DTD/sodipodi-0.dtd"
   xmlns:inkscape="http://www.inkscape.org/namespaces/inkscape"
   width="191.33858"
   height="301.18109"
   id="svg2"
   sodipodi:version="0.32"
   inkscape:version="0.46"
   version="1.0"
   sodipodi:docname="squirtle.svg"
   inkscape:output_extension="org.inkscape.output.svg.inkscape"
   inkscape:export-filename="/home/bucko/Projects/squirtle.png"
   inkscape:export-xdpi="600.19263"
   inkscape:export-ydpi="600.19263">
  <defs
     id="defs4">
    <linearGradient
       id="linearGradient3629">
      <stop
         style="stop-color:#b6b6b6;stop-opacity:1;"
         offset="0"
         id="stop3639" />
      <stop
         id="stop3641"
         offset="0.5"
         style="stop-color:#f2f2f2;stop-opacity:1;" />
      <stop
         style="stop-color:#bababa;stop-opacity:1;"
         offset="1"
         id="stop3633" />
    </linearGradient>
    <inkscape:perspective
       sodipodi:type="inkscape:persp3d"
       inkscape:vp_x="0 : 526.18109 : 1"
       inkscape:vp_y="0 : 1000 : 0"
       inkscape:vp_z="744.09448 : 526.18109 : 1"
       inkscape:persp3d-origin="372.04724 : 350.78739 : 1"
       id="perspective10" />
    <inkscape:perspective
       id="perspective2447"
       inkscape:persp3d-origin="372.04724 : 350.78739 : 1"
       inkscape:vp_z="744.09448 : 526.18109 : 1"
       inkscape:vp_y="0 : 1000 : 0"
       inkscape:vp_x="0 : 526.18109 : 1"
       sodipodi:type="inkscape:persp3d" />
    <linearGradient
       inkscape:collect="always"
       xlink:href="#linearGradient3629"
       id="linearGradient3635"
       x1="78.188797"
       y1="33.682583"
       x2="154.59218"
       y2="44.996288"
       gradientUnits="userSpaceOnUse"
       gradientTransform="matrix(0.8993538,0,0,0.8993538,9.6046964,7.8322152)" />
    <linearGradient
       inkscape:collect="always"
       xlink:href="#linearGradient3629"
       id="linearGradient3647"
       gradientUnits="userSpaceOnUse"
       x1="78.188797"
       y1="33.682583"
       x2="154.59218"
       y2="44.996288"
       gradientTransform="matrix(0.8993538,0,0,0.8993538,9.6046964,7.8322152)" />
  </defs>
  <sodipodi:namedview
     id="base"
     pagecolor="#ffffff"
     bordercolor="#666666"
     borderopacity="1.0"
     gridtolerance="10000"
     guidetolerance="10"
     objecttolerance="10"
     inkscape:pageopacity="1"
     inkscape:pageshadow="2"
     inkscape:zoom="2"
     inkscape:cx="226.0304"
     inkscape:cy="188.32114"
     inkscape:document-units="mm"
     inkscape:current-layer="layer1"
     showgrid="false"
     units="mm"
     inkscape:window-width="1914"
     inkscape:window-height="1194"
     inkscape:window-x="1600"
     inkscape:window-y="0" />
  <metadata
     id="metadata7">
    <rdf:RDF>
      <cc:Work
         rdf:about="">
        <dc:format>image/svg+xml</dc:format>
        <dc:type
           rdf:resource="http://purl.org/dc/dcmitype/StillImage" />
      </cc:Work>
    </rdf:RDF>
  </metadata>
  <g
     inkscape:label="Layer 1"
     inkscape:groupmode="layer"
     id="layer1">
    <path
       style="opacity:1;fill:#99e5cc;fill-opacity:1;fill-rule:nonzero;stroke:#000000;stroke-width:0;stroke-miterlimit:4;stroke-dasharray:none;stroke-opacity:1"
       d="M 106.17539,41.739814 C 96.435787,41.700415 82.634222,46.882005 76.839239,52.676987 C 71.361291,58.154938 67.5762,66.972248 66.719797,76.186801 L 66.208714,81.297631 L 70.910676,88.350574 C 73.492652,92.230283 76.31713,97.004672 77.248106,98.981093 C 78.63732,101.93033 79.630279,102.84717 82.563368,104.09192 C 88.81321,106.74426 99.800397,109.22465 110.16184,110.22492 C 110.58063,110.26535 113.54177,109.76689 116.70371,109.20275 C 126.94493,107.37559 133.73095,103.28417 139.89147,93.752654 C 142.87987,89.129024 142.72072,85.065338 139.78424,89.250119 C 136.80324,93.498377 131.55721,97.963166 127.32403,99.916455 C 120.95132,102.85694 110.93386,103.12132 103.01688,100.58596 C 96.356251,98.452919 89.917633,94.492765 86.217564,90.170067 C 83.062861,86.484508 77.544083,76.572989 78.065839,75.164635 C 78.444644,74.142136 78.437722,74.793419 79.476464,78.149322 C 79.663345,78.753092 80.767661,79.845249 81.929664,80.602519 C 83.785003,81.811628 85.802844,81.961193 96.669256,81.783111 C 108.21745,81.593855 109.33282,81.450183 114.45495,83.239745 C 119.49468,85.000522 120.37296,85.087475 124.36995,84.261911 C 128.21949,83.466799 129.37544,83.603395 135.00048,85.079643 C 138.49868,85.997715 142.14806,86.720768 143.07559,86.715108 C 146.44278,86.694571 147.9705,81.405367 145.17093,78.425363 C 143.92897,77.103354 143.06526,75.097231 142.44688,70.769322 C 141.34358,63.047501 138.72304,58.359522 133.46724,53.18807 C 126.36012,46.195061 115.88464,41.77909 106.17539,41.739814 z M 100.86014,49.406056 C 100.96088,49.349152 101.1486,49.406056 101.37123,49.406056 C 102.18464,49.406057 104.0851,53.847329 103.51777,54.414668 C 103.2957,54.636732 102.55417,53.717124 101.8823,52.370337 C 100.81859,50.23808 100.5579,49.576769 100.86014,49.406056 z M 96.26039,51.593414 C 97.901062,51.701188 99.04444,52.545405 100.20602,54.45548 C 102.02034,57.438887 102.85589,62.137647 102.20436,66.874889 C 101.7276,70.341225 101.77575,70.367186 99.168461,71.091371 C 95.604654,72.08123 88.539068,72.164611 86.810457,71.157783 C 85.782289,70.558934 85.706481,69.542223 85.706481,66.113367 C 85.706482,57.597449 91.338368,51.270096 96.26039,51.593414 z M 127.94753,54.210235 C 128.03015,54.144675 128.04537,54.215626 128.04975,54.312452 C 128.10939,55.634625 126.20788,60.03658 125.59655,60.03658 C 125.2619,60.03658 125.06791,59.839586 125.08547,59.525498 C 125.13073,58.715615 127.36925,54.66916 127.94753,54.210235 z M 131.78576,57.557782 C 137.20466,59.353882 137.63704,65.043735 137.94436,70.156023 C 137.90868,72.968886 137.58826,75.718311 137.32085,76.150996 C 136.74269,77.086496 134.79077,76.391157 131.4331,75.42027 C 128.01592,74.432183 127.24722,72.540801 127.24722,67.748832 C 127.24722,61.512504 128.87512,57.486187 131.78576,57.557782 z M 55.373757,64.329678 C 54.825647,64.637933 53.879992,65.831227 53.022775,67.293958 C 51.879824,69.24426 50.630261,70.658146 50.160711,70.462672 C 49.691158,70.267198 48.068644,69.220945 46.491116,68.54616 C 43.633414,67.32378 43.265829,67.683437 42.520069,69.64494 C 42.108383,70.727737 41.692135,72.416398 41.692135,73.380946 C 40.788349,75.90725 37.945964,75.699736 35.441523,76.289018 C 35.238071,76.492466 36.298128,78.215507 37.792504,80.173247 C 39.286881,82.130988 40.552352,84.406921 40.552352,85.181859 C 40.552352,87.281621 46.072002,103.87472 48.72968,109.71384 C 50.004354,112.51441 52.096448,116.35939 53.431641,118.30003 C 55.814064,121.76276 55.950422,121.87212 59.053554,121.36652 C 60.792661,121.08317 63.867291,119.90538 65.902064,118.81111 C 72.168095,115.44133 78.569483,106.39724 77.554756,102.35424 C 76.888218,99.698545 70.150612,88.990342 64.164384,80.99098 C 60.11447,75.579104 58.351259,72.530339 57.520305,69.33829 C 56.899231,66.95247 56.137732,64.685441 55.782623,64.329678 C 55.693846,64.240735 55.556461,64.226925 55.373757,64.329678 z M 113.73944,76.084584 C 114.62538,76.084587 116.55774,78.221212 116.60149,79.253298 C 116.64473,80.273129 115.43871,79.861452 114.1483,78.435566 C 112.67314,76.805539 112.5291,76.084584 113.73944,76.084584 z M 124.47217,77.720049 C 124.58631,77.724504 124.70969,77.753138 124.77881,77.822266 C 125.33181,78.375272 123.60593,80.582113 122.63227,80.582113 C 122.26477,80.582117 122.01896,80.336316 122.01896,79.968815 C 122.01896,79.116855 123.67316,77.688857 124.47217,77.720049 z M 163.92777,93.052536 C 163.12026,93.264934 161.37024,93.96859 159.53245,94.892436 C 157.08209,96.124228 153.94524,97.450505 152.47951,97.754499 C 146.33347,99.029208 131.31108,104.29191 129.27635,105.93182 C 127.15577,107.64095 127.13226,107.84768 128.04975,110.736 C 129.68166,115.87342 133.85193,122.72482 137.65811,126.47736 C 139.66703,128.45797 141.37304,130.05493 141.44012,130.05493 C 141.50719,130.05493 142.75968,129.63457 144.19997,129.03277 C 148.74633,127.13319 156.02759,121.03293 160.14576,115.74462 C 162.3308,112.93874 165.64304,109.10756 167.50536,107.15843 C 169.36766,105.20929 170.71772,103.26674 170.46963,102.86533 C 170.22155,102.46392 168.48071,101.6583 166.5854,101.12764 C 164.69011,100.597 163.1077,99.95627 163.11004,99.696612 C 163.11236,99.436954 163.4808,97.93316 163.92777,96.323467 C 164.37474,94.713771 164.53417,93.250078 164.33664,93.052536 C 164.28725,93.003152 164.19694,92.981736 163.92777,93.052536 z M 159.83911,102.0476 C 161.5942,101.98484 163.17978,102.27757 163.41668,102.66089 C 163.89719,103.43834 160.31385,107.97616 159.22581,107.97616 C 158.84424,107.97615 158.5103,107.82111 158.5103,107.56729 C 158.5103,107.31348 159.37558,106.36999 160.4524,105.52296 C 162.65914,103.78713 162.26016,102.93213 158.91915,102.45646 C 157.07563,102.19399 157.26373,102.13967 159.83911,102.0476 z M 129.68521,151.41821 L 129.68521,151.41821 z M 36.668123,130.25937 C 32.766891,130.40697 28.611953,132.27256 25.628732,135.57463 C 22.007025,139.58343 20.722336,142.82042 20.722336,147.84062 C 20.722336,159.10832 29.050166,168.04627 36.054823,164.2975 C 41.072806,161.61196 40.885818,149.26483 35.748173,145.89851 C 33.113499,144.1722 31.430814,144.21138 29.308528,146.20515 C 26.1108,149.20925 27.22962,154.70629 31.35286,156.22237 C 32.143208,156.51299 32.047857,156.69187 30.943993,156.73346 C 26.042441,156.91817 24.533228,147.01595 29.104095,144.56969 C 33.055093,142.45518 37.586418,144.41826 39.836837,149.37387 C 41.461685,152.95191 41.553457,155.21427 40.450135,159.18666 C 39.389134,163.00664 37.635556,164.96655 34.214924,166.13739 L 31.35286,167.15957 L 34.214924,169.10167 C 40.126189,173.01357 47.951309,176.32684 51.38731,176.46126 C 52.259723,176.4954 52.937843,175.58852 53.533858,173.5992 C 54.345942,170.88871 54.234705,170.40917 52.511692,168.0795 C 48.012995,161.99687 44.951682,150.48702 44.947665,139.86772 C 44.945303,133.61502 44.764441,132.98034 43.107767,131.89483 C 41.249839,130.67747 39.008863,130.17081 36.668123,130.25937 z M 142.05342,156.01794 C 134.97671,156.01793 123.46722,164.59382 119.36134,172.9859 C 117.48911,176.81257 115.28904,185.34933 115.9882,185.9674 C 116.17646,186.13383 118.06257,186.41326 120.17908,186.68292 C 123.86316,187.15229 123.98454,187.16042 124.77881,185.14967 C 125.55365,183.18812 125.62312,183.2249 125.69876,186.78513 C 125.74332,188.88181 126.10597,191.79333 126.5165,193.22479 C 127.321,196.02995 130.59742,199.90342 133.05837,200.99323 C 135.55958,202.1009 141.09184,201.06355 146.2443,198.54004 C 153.83232,194.82373 170.49323,177.65147 168.93638,175.13246 C 168.685,174.7257 166.98064,174.52552 165.25658,174.72357 L 162.19008,175.13246 L 162.70117,172.3726 C 162.98639,170.85224 163.39148,169.0868 163.62112,168.48837 C 164.12518,167.17483 161.03534,167.04713 157.07925,168.18172 C 155.64404,168.59333 154.34995,168.82557 154.21719,168.6928 C 154.08443,168.56004 154.26101,166.86477 154.62605,164.91079 C 155.19661,161.85675 155.08541,161.3332 154.01277,161.3332 C 152.49616,161.3332 147.65526,164.51515 144.30218,167.67064 C 142.94741,168.94557 141.57675,169.74938 141.3379,169.51053 C 141.09907,169.2717 142.79873,167.4577 145.11991,165.42187 C 147.44108,163.38603 149.40772,161.51295 149.41301,161.231 C 149.41829,160.94903 148.55509,159.6574 147.4709,158.36892 C 145.80497,156.38908 144.96274,156.01794 142.05342,156.01794 z M 61.404534,164.39971 C 59.745438,164.30234 58.628205,164.91453 57.826955,166.13739 C 55.193183,170.15704 53.321989,178.41252 52.920558,187.70508 C 52.473554,198.05246 53.151735,201.15414 56.600355,205.0819 L 58.746904,207.5351 L 56.498139,212.95258 C 55.279397,215.94738 54.022973,219.61244 53.738291,221.1299 C 53.242833,223.77092 53.331161,223.91831 55.067107,223.37868 C 56.064551,223.0686 57.829091,222.12454 58.951337,221.33434 C 61.21491,219.74051 61.417662,219.95709 62.222267,223.78755 C 63.081208,227.87663 63.360182,227.89066 66.515365,224.80971 C 68.134626,223.22855 69.549296,222.0721 69.684079,222.25429 C 69.818857,222.43646 70.545478,224.05206 71.319544,225.83186 C 72.093616,227.61168 73.041682,229.1028 73.363876,229.1028 C 73.686071,229.10281 75.564639,224.73168 77.656972,219.39222 C 82.07177,208.12604 83.320015,203.82305 82.665584,202.11763 C 82.105107,200.65703 81.093781,200.4879 80.621253,201.81098 C 80.434292,202.33445 80.029153,202.52526 79.701303,202.21985 C 79.373455,201.91443 80.719946,198.37359 82.665584,194.34916 C 84.611222,190.32475 86.243164,186.52407 86.243164,185.86519 C 86.243164,181.78241 75.441705,170.48271 68.048613,166.75069 C 65.201994,165.31371 63.063632,164.49709 61.404534,164.39971 z"
       id="rect2457"
       sodipodi:nodetypes="cscccssssssssssssssssssssccsssccsssssccssscccsssccssssccssssssssssccssccsssccssssssssssssssccsssssccccsssssssssscccsssssccssssssssscccssssssssssccsscccsssssssssssssssc" />
    <path
       style="opacity:1;fill:#e5e57f;fill-opacity:1;fill-rule:nonzero;stroke:#000000;stroke-width:0;stroke-miterlimit:4;stroke-dasharray:none;stroke-opacity:1"
       d="M 106.89092,164.91079 L 101.67787,168.28394 C 98.82911,170.14297 93.781812,173.33121 90.536261,175.33688 C 87.290716,177.34256 84.709916,179.20359 84.709916,179.52776 C 85.712463,181.45544 87.104339,183.09973 87.367547,184.74082 C 87.581518,186.07491 87.280462,187.54942 88.18528,187.60288 C 94.655799,187.98511 96.412909,188.44827 98.713588,188.42061 C 101.01426,188.39294 103.85819,187.9414 112.3084,186.68292 C 113.1624,186.55573 113.66296,186.16134 114.04607,185.66075 C 114.4292,185.16018 114.6349,184.5417 114.76158,183.82085 C 115.01498,182.37919 114.96272,180.62504 115.47711,179.22112 C 116.01151,177.72068 116.32949,177.01934 116.09041,176.15462 C 115.85132,175.28988 115.11665,174.29021 113.6372,172.3726 C 112.00014,170.25059 109.77535,167.73199 108.73081,166.75069 L 106.89092,164.91079 z"
       id="path3565" />
    <path
       style="opacity:1;fill:#e5e57f;fill-opacity:1;fill-rule:nonzero;stroke:#000000;stroke-width:0;stroke-miterlimit:4;stroke-dasharray:none;stroke-opacity:1"
       d="M 106.89092,164.91079 L 108.73081,166.75069 C 109.77535,167.73199 112.00014,170.25059 113.6372,172.3726 C 115.11665,174.29021 115.85132,175.28988 116.09041,176.15462 C 116.32949,177.01934 116.01151,177.72068 115.47711,179.22112 C 114.96272,180.62504 115.01498,182.37919 114.76158,183.82085 C 114.6349,184.5417 114.4292,185.16018 114.04607,185.66075 C 113.66296,186.16134 113.1624,186.55573 112.3084,186.68292 C 103.85819,187.9414 101.01426,188.39294 98.713588,188.42061 C 96.412909,188.44827 94.655799,187.98511 88.18528,187.60288 C 87.280462,187.54942 87.581518,186.07491 87.367547,184.74082 C 87.104339,183.09973 85.712463,181.45544 84.709916,179.52776 C 84.709916,179.20359 87.290716,177.34256 90.536261,175.33688 C 93.781812,173.33121 98.82911,170.14297 101.67787,168.28394 L 106.89092,164.91079 z"
       id="path3563" />
    <path
       style="opacity:1;fill:#e5e57f;fill-opacity:1;fill-rule:nonzero;stroke:#000000;stroke-width:0;stroke-miterlimit:4;stroke-dasharray:none;stroke-opacity:1"
       d="M 110.05963,144.36525 L 109.8552,147.22733 C 109.8552,148.76816 109.41238,153.1576 108.93524,157.04012 L 108.11751,164.09305 L 112.51283,169.51053 L 117.01036,174.8258 L 119.05468,171.35043 C 120.15989,169.41636 122.33994,166.39665 123.96109,164.70636 C 125.58223,163.01607 127.95187,160.97529 129.17414,160.1066 L 131.42289,158.47114 L 128.86747,152.33815 C 127.44969,148.82095 125.90486,146.00754 125.18769,145.79628 C 124.49574,145.59247 120.67964,145.15718 116.80593,144.87634 L 110.05963,144.36525 z"
       id="path3561" />
    <path
       style="opacity:1;fill:#e5e57f;fill-opacity:1;fill-rule:nonzero;stroke:#000000;stroke-width:0;stroke-miterlimit:4;stroke-dasharray:none;stroke-opacity:1"
       d="M 110.05963,144.36525 L 116.80593,144.87634 C 120.67964,145.15718 124.49574,145.59247 125.18769,145.79628 C 125.90486,146.00754 127.44969,148.82095 128.86747,152.33815 L 131.42289,158.47114 L 129.17414,160.1066 C 127.95187,160.97529 125.58223,163.01607 123.96109,164.70636 C 122.33994,166.39665 120.15989,169.41636 119.05468,171.35043 L 117.01036,174.8258 L 112.51283,169.51053 L 108.11751,164.09305 L 108.93524,157.04012 C 109.41238,153.1576 109.8552,148.76816 109.8552,147.22733 L 110.05963,144.36525 z"
       id="path3559" />
    <path
       style="opacity:1;fill:#e5e57f;fill-opacity:1;fill-rule:nonzero;stroke:#000000;stroke-width:0;stroke-miterlimit:4;stroke-dasharray:none;stroke-opacity:1"
       d="M 84.30105,143.85417 L 77.043673,154.17805 C 73.065256,159.8719 69.709487,164.78107 69.581862,165.11522 C 69.454233,165.44937 70.870575,166.78604 72.750576,168.0795 C 74.630575,169.37298 77.822179,172.11983 79.803521,174.21249 C 81.784852,176.30517 83.514214,178.09673 83.68775,178.09673 C 83.861286,178.09673 88.337034,175.41065 93.602758,172.16816 C 100.46267,167.94405 103.89279,165.85043 105.66432,163.78641 C 106.55007,162.7544 107.00669,161.69685 107.29978,160.41326 C 107.59286,159.12967 107.75973,157.67199 107.91307,155.60908 C 108.19165,151.8618 108.56911,147.82464 108.73081,146.71624 C 108.86265,145.81245 108.85118,144.69076 108.93524,144.36525 C 108.62891,144.23052 107.68671,144.53458 106.58426,144.36525 C 105.20143,144.15287 99.660205,143.99786 94.216058,143.95638 L 84.30105,143.85417 z"
       id="path3557" />
    <path
       style="opacity:1;fill:#e5e57f;fill-opacity:1;fill-rule:nonzero;stroke:#000000;stroke-width:0;stroke-miterlimit:4;stroke-dasharray:none;stroke-opacity:1"
       d="M 84.30105,143.85417 L 94.216058,143.95638 C 99.660205,143.99786 105.20143,144.15287 106.58426,144.36525 C 107.68671,144.53458 108.62891,144.23052 108.93524,144.36525 C 108.85118,144.69076 108.86265,145.81245 108.73081,146.71624 C 108.56911,147.82464 108.19165,151.8618 107.91307,155.60908 C 107.75973,157.67199 107.59286,159.12967 107.29978,160.41326 C 107.00669,161.69685 106.55007,162.7544 105.66432,163.78641 C 103.89279,165.85043 100.46267,167.94405 93.602758,172.16816 C 88.337034,175.41065 83.861286,178.09673 83.68775,178.09673 C 83.514214,178.09673 81.784852,176.30517 79.803521,174.21249 C 77.822179,172.11983 74.630575,169.37298 72.750576,168.0795 C 70.870575,166.78604 69.454233,165.44937 69.581862,165.11522 C 69.709487,164.78107 73.065256,159.8719 77.043673,154.17805 L 84.30105,143.85417 z"
       id="path3555" />
    <path
       style="opacity:1;fill:#e5e57f;fill-opacity:1;fill-rule:nonzero;stroke:#000000;stroke-width:0;stroke-miterlimit:4;stroke-dasharray:none;stroke-opacity:1"
       d="M 138.37362,129.23721 C 138.20858,129.06726 138.11214,129.22144 137.76032,129.95272 C 137.05668,131.41526 136.15442,132.73961 135.2049,134.04138 C 134.07436,135.83665 131.84305,139.11355 130.19629,141.29875 L 127.12979,145.2852 L 129.68521,151.41821 C 131.08646,154.77129 132.4445,157.43843 132.64949,157.44898 C 132.85448,157.45952 134.43411,156.95525 136.22708,156.22237 C 138.29494,155.37715 139.58404,154.30198 140.31574,152.03149 C 141.04745,149.76102 141.30137,146.26797 141.3379,140.58325 C 141.36247,136.76037 141.26492,134.64363 141.03126,133.32587 C 140.79757,132.00811 140.43264,131.47279 139.60021,130.66824 C 138.85687,129.94977 138.53866,129.40714 138.37362,129.23721 z"
       id="path3549" />
    <path
       style="opacity:1;fill:#e5e57f;fill-opacity:1;fill-rule:nonzero;stroke:#000000;stroke-width:0;stroke-miterlimit:4;stroke-dasharray:none;stroke-opacity:1"
       d="M 138.37362,129.23721 C 138.53866,129.40714 138.85687,129.94977 139.60021,130.66824 C 140.43264,131.47279 140.79757,132.00811 141.03126,133.32587 C 141.26492,134.64363 141.36247,136.76037 141.3379,140.58325 C 141.30137,146.26797 141.04745,149.76102 140.31574,152.03149 C 139.58404,154.30198 138.29494,155.37715 136.22708,156.22237 C 134.43411,156.95525 132.85448,157.45952 132.64949,157.44898 C 132.4445,157.43843 131.08646,154.77129 129.68521,151.41821 L 127.12979,145.2852 L 130.19629,141.29875 C 131.84305,139.11355 134.07436,135.83665 135.2049,134.04138 C 136.15442,132.73961 137.05668,131.41526 137.76032,129.95272 C 138.11214,129.22144 138.20858,129.06726 138.37362,129.23721 z"
       id="path3547" />
    <path
       style="opacity:1;fill:#e5e57f;fill-opacity:1;fill-rule:nonzero;stroke:#000000;stroke-width:0;stroke-miterlimit:4;stroke-dasharray:none;stroke-opacity:1"
       d="M 63.551082,121.26431 C 62.172452,121.63678 60.489865,122.43169 58.133604,123.00199 C 57.998315,123.0341 57.155924,123.24525 56.600355,123.81972 C 56.044788,124.39419 55.710443,125.29934 56.498139,126.68179 C 57.151504,129.14943 57.23353,132.32032 57.724739,135.06354 C 58.917578,140.80269 59.039064,142.12052 58.133604,147.02289 C 56.452395,156.12534 56.340779,157.06941 57.213656,160.31105 C 57.857126,162.70071 58.339386,163.33785 59.360204,163.07089 C 60.091292,162.8797 62.083829,163.2869 63.755517,163.88862 C 65.427197,164.49034 67.118749,164.98026 67.53753,165.01301 C 67.956314,165.04575 71.532006,160.37855 75.510422,154.68913 C 79.488843,148.99972 82.938488,144.1079 83.07445,143.75196 C 83.315947,143.11974 68.510194,123.41948 66.822014,121.7754 C 65.918021,120.89501 64.929714,120.89184 63.551082,121.26431 z"
       id="path3545" />
    <path
       style="opacity:1;fill:#e5e57f;fill-opacity:1;fill-rule:nonzero;stroke:#000000;stroke-width:0;stroke-miterlimit:4;stroke-dasharray:none;stroke-opacity:1"
       d="M 63.551082,121.26431 C 64.929714,120.89184 65.918021,120.89501 66.822014,121.7754 C 68.510194,123.41948 83.315947,143.11974 83.07445,143.75196 C 82.938488,144.1079 79.488843,148.99972 75.510422,154.68913 C 71.532006,160.37855 67.956314,165.04575 67.53753,165.01301 C 67.118749,164.98026 65.427197,164.49034 63.755517,163.88862 C 62.083829,163.2869 60.091292,162.8797 59.360204,163.07089 C 58.339386,163.33785 57.857126,162.70071 57.213656,160.31105 C 56.340779,157.06941 56.452395,156.12534 58.133604,147.02289 C 59.039064,142.12052 58.917578,140.80269 57.724739,135.06354 C 57.23353,132.32032 57.151504,129.14943 56.498139,126.68179 C 55.710443,125.29934 56.044788,124.39419 56.600355,123.81972 C 57.155924,123.24525 57.998315,123.0341 58.133604,123.00199 C 60.489865,122.43169 62.172452,121.63678 63.551082,121.26431 z"
       id="path3543" />
    <path
       style="opacity:1;fill:#e5e57f;fill-opacity:1;fill-rule:nonzero;stroke:#000000;stroke-width:0;stroke-miterlimit:4;stroke-dasharray:none;stroke-opacity:1"
       d="M 109.03747,119.32219 L 109.44634,122.28647 C 109.71533,123.96868 110.00261,129.39278 110.05963,134.24582 L 110.16184,143.03643 L 112.51283,143.44531 C 114.68323,143.80357 118.71061,144.1744 123.96109,144.46748 C 124.98624,144.52469 125.74418,144.4085 126.5165,143.85417 C 127.28882,143.29985 128.07154,142.31439 129.37856,140.58325 C 131.04965,138.36988 133.485,134.62675 134.79604,132.3037 L 137.24924,128.11282 L 134.79604,125.25075 C 133.68071,123.98201 132.90619,123.22441 131.72955,122.69533 C 130.55291,122.16628 128.95456,121.83339 126.20986,121.36652 C 122.85962,120.79666 117.60525,120.13194 114.55716,119.83327 L 109.03747,119.32219 z"
       id="path3541" />
    <path
       style="opacity:1;fill:#e5e57f;fill-opacity:1;fill-rule:nonzero;stroke:#000000;stroke-width:0;stroke-miterlimit:4;stroke-dasharray:none;stroke-opacity:1"
       d="M 109.03747,119.32219 L 114.55716,119.83327 C 117.60525,120.13194 122.85962,120.79666 126.20986,121.36652 C 128.95456,121.83339 130.55291,122.16628 131.72955,122.69533 C 132.90619,123.22441 133.68071,123.98201 134.79604,125.25075 L 137.24924,128.11282 L 134.79604,132.3037 C 133.485,134.62675 131.04965,138.36988 129.37856,140.58325 C 128.07154,142.31439 127.28882,143.29985 126.5165,143.85417 C 125.74418,144.4085 124.98624,144.52469 123.96109,144.46748 C 118.71061,144.1744 114.68323,143.80357 112.51283,143.44531 L 110.16184,143.03643 L 110.05963,134.24582 C 110.00261,129.39278 109.71533,123.96868 109.44634,122.28647 L 109.03747,119.32219 z"
       id="path3539" />
    <path
       style="opacity:1;fill:#e5e57f;fill-opacity:1;fill-rule:nonzero;stroke:#000000;stroke-width:0;stroke-miterlimit:4;stroke-dasharray:none;stroke-opacity:1"
       d="M 87.674197,118.40224 C 78.15483,118.25875 68.651685,118.41853 67.946397,119.11777 C 67.287944,119.77054 68.660732,122.10044 73.466091,128.31725 C 76.981391,132.8651 80.764261,137.98817 81.950067,139.66329 L 84.096616,142.62757 L 96.669256,142.83201 L 109.03747,143.03643 L 108.83303,131.99705 C 108.55792,123.7196 108.22144,120.55049 107.402,119.73106 C 106.68128,119.01034 97.193563,118.54573 87.674197,118.40224 z"
       id="path3537" />
    <path
       style="opacity:1;fill:#e5e57f;fill-opacity:1;fill-rule:nonzero;stroke:#000000;stroke-width:0;stroke-miterlimit:4;stroke-dasharray:none;stroke-opacity:1"
       d="M 87.674197,118.40224 C 97.193563,118.54573 106.68128,119.01034 107.402,119.73106 C 108.22144,120.55049 108.55792,123.7196 108.83303,131.99705 L 109.03747,143.03643 L 96.669256,142.83201 L 84.096616,142.62757 L 81.950067,139.66329 C 80.764261,137.98817 76.981391,132.8651 73.466091,128.31725 C 68.660732,122.10044 67.287944,119.77054 67.946397,119.11777 C 68.651685,118.41853 78.15483,118.25875 87.674197,118.40224 z"
       id="path3535" />
    <path
       style="opacity:1;fill:#e5e57f;fill-opacity:1;fill-rule:nonzero;stroke:#000000;stroke-width:0;stroke-miterlimit:4;stroke-dasharray:none;stroke-opacity:1"
       d="M 80.314604,105.2163 C 79.10536,104.85048 78.920607,104.7344 78.576922,106.03405 C 77.299077,108.92263 75.394368,111.40862 73.466091,113.90472 L 70.910676,117.17565 L 84.403266,117.17565 C 91.864661,117.20769 98.494285,117.36433 99.122453,117.48231 C 99.750626,117.60025 104.02201,117.99174 108.62861,118.30003 C 113.23519,118.60832 119.7931,119.29473 123.14335,119.83327 C 130.48657,121.01371 131.11624,121.05163 131.11624,120.65101 C 131.11624,120.47921 130.12349,118.19515 128.86747,115.54019 C 127.61147,112.88521 126.61924,110.0306 126.5165,109.30497 C 126.38375,108.3674 126.3673,108.03585 126.00541,108.07837 C 125.64353,108.1209 124.93472,108.61595 123.45,109.20275 C 121.24772,110.07317 119.42506,110.37549 117.317,110.736 C 114.11401,111.28379 110.79128,111.52724 107.50422,111.3493 C 104.15068,111.16776 100.82206,110.38047 97.589205,109.71384 C 91.723782,108.50436 86.087082,106.96268 80.314604,105.2163 z"
       id="path3529" />
    <path
       sodipodi:nodetypes="cccsssccscsccssssscsccssssscsccccccsscccssccsssssssscccsssssscsccssscsssssscs"
       id="path3567"
       d="M 66.382539,76.692687 L 66.208714,81.297631 L 70.910676,88.350574 C 73.492652,92.230283 76.31713,97.004672 77.248106,98.981093 C 78.63732,101.93033 79.630279,102.84717 82.563368,104.09192 C 88.81321,106.74426 99.800397,109.22465 110.16184,110.22492 C 110.58063,110.26535 113.76661,109.99173 116.92854,109.4276 C 121.46565,108.54497 116.68282,110.41531 127.89295,105.65111 C 126.88026,104.64777 112.39598,109.68357 96.297319,102.7298 C 82.122631,96.607088 65.711038,79.622916 69.910643,62.926281 C 65.396426,70.365832 66.919137,74.41077 66.382539,76.692687 z M 40.062056,74.673768 C 38.658838,75.45206 37.57668,75.306595 35.104266,76.00797 C 34.900813,76.211418 36.01708,78.271716 37.511456,80.229456 C 39.005833,82.187198 40.046465,84.406921 40.046465,85.181859 C 40.046465,87.281621 45.678535,104.04335 48.336212,109.88247 C 49.610886,112.68304 51.702981,116.58422 53.038174,118.52487 C 55.420597,121.9876 56.062842,122.37801 59.165973,121.87241 C 60.905081,121.58906 63.867291,119.90538 65.902064,118.81111 C 60.153253,117.63414 45.206834,98.59991 43.169879,82.274352 C 42.717511,78.648774 38.701552,77.119193 40.062056,74.673768 z M 137.65811,126.47736 C 139.66703,128.45797 141.37304,130.05493 141.44012,130.05493 C 141.50719,130.05493 142.75968,129.63457 144.19997,129.03277 C 148.74633,127.13319 156.02759,121.03293 160.14576,115.74462 C 162.3308,112.93874 165.64304,109.10756 167.50536,107.15843 C 169.36766,105.20929 170.71772,103.26674 170.46963,102.86533 C 170.22155,102.46392 171.79707,102.67008 169.90176,102.13942 C 170.36968,99.37171 164.66456,109.54005 155.71709,116.13282 C 148.19676,121.67406 140.03372,130.98926 137.65811,126.47736 z M 20.722336,144.63667 C 17.744814,156.58981 29.924102,170.6642 35.577041,165.05633 C 35.165893,167.78853 23.524529,160.96755 31.151501,166.47464 L 31.35286,167.15957 L 34.214924,169.10167 C 40.126189,173.01357 48.030801,176.7243 51.466802,176.85873 C 52.339215,176.89287 52.937843,175.58852 53.533858,173.5992 C 54.345942,170.88871 56.145832,173.72553 54.422818,171.39587 C 50.611625,174.74011 36.553719,166.63054 38.843992,162.37416 C 40.903234,161.40091 40.19464,156.46951 39.807853,156.78008 C 39.091547,156.90444 40.09224,159.68197 35.541751,162.2402 C 32.407303,164.00233 27.761157,161.66932 24.686384,157.42542 C 20.841124,152.11806 18.779055,142.88593 20.722336,144.63667 z M 117.78747,176.58332 C 115.91524,180.40998 114.89158,185.6673 115.59073,186.28537 C 115.779,186.4518 118.30105,186.81073 120.41756,187.08039 C 124.10164,187.54976 123.98454,187.16042 124.77881,185.14967 C 125.55365,183.18812 125.62312,183.2249 125.69876,186.78513 C 125.74332,188.88181 126.10597,191.79333 126.5165,193.22479 C 127.321,196.02995 130.59742,199.90342 133.05837,200.99323 C 135.55958,202.1009 141.19584,201.27763 146.44021,198.95114 C 153.80326,195.68477 167.60775,181.90474 168.09323,175.30108 C 168.12829,174.82421 166.86823,175.31244 165.14417,175.51051 L 161.45936,175.75075 L 161.80181,172.42881 C 162.08703,170.90845 162.43591,169.42406 162.66555,168.82563 C 163.16962,167.51208 161.09155,167.66544 157.13546,168.80002 C 155.70025,169.21163 153.90027,169.44387 153.76752,169.31111 C 153.63475,169.17835 153.53029,167.20202 153.89533,165.24804 C 154.46589,162.19401 154.74815,162.06392 153.67551,162.06392 C 152.15891,162.06392 148.31545,165.41532 144.58323,168.06411 C 138.71304,172.23022 126.32793,199.26658 127.4642,179.7827 C 127.8001,178.26309 127.65412,176.81082 125.96303,175.63591 C 124.7187,174.77139 118.38969,175.91796 117.78747,176.58332 z M 61.049447,206.87812 C 59.0735,207.72399 61.548687,208.48048 62.141615,208.67276 C 64.005634,209.27724 73.505212,210.19926 73.505212,210.19926 C 76.107979,210.05365 79.159054,209.95919 79.251126,210.10287 C 81.085503,212.96535 73.406769,226.63165 73.363876,229.1028 C 73.686071,229.10281 76.463993,224.73168 78.556326,219.39222 C 82.971124,208.12604 83.796969,203.66407 83.142539,201.95864 C 82.582061,200.49804 81.093781,200.4879 80.621253,201.81098 C 80.434292,202.33445 80.310201,202.41285 79.982351,202.10742 C 79.654503,201.80201 80.972889,198.51411 82.918527,194.48968 C 84.864165,190.46527 86.384287,186.50878 86.243164,185.86519 C 85.489564,182.42836 87.832399,184.02781 82.516228,178.51557 C 73.389462,209.49844 70.847826,202.68368 61.049447,206.87812 z"
       style="opacity:1;fill:#35a17e;fill-opacity:1;fill-rule:nonzero;stroke:#000000;stroke-width:0;stroke-miterlimit:4;stroke-dasharray:none;stroke-opacity:1" />
    <path
       style="opacity:1;fill:#e5e57f;fill-opacity:1;fill-rule:nonzero;stroke:#000000;stroke-width:0;stroke-miterlimit:4;stroke-dasharray:none;stroke-opacity:1"
       d="M 80.314604,105.2163 C 86.087082,106.96268 91.723782,108.50436 97.589205,109.71384 C 100.82206,110.38047 104.15068,111.16776 107.50422,111.3493 C 110.79128,111.52724 114.11401,111.28379 117.317,110.736 C 119.42506,110.37549 121.24772,110.07317 123.45,109.20275 C 124.93472,108.61595 125.64353,108.1209 126.00541,108.07837 C 126.3673,108.03585 126.38375,108.3674 126.5165,109.30497 C 126.61924,110.0306 127.61147,112.88521 128.86747,115.54019 C 130.12349,118.19515 131.11624,120.47921 131.11624,120.65101 C 131.11624,121.05163 130.48657,121.01371 123.14335,119.83327 C 119.7931,119.29473 113.23519,118.60832 108.62861,118.30003 C 104.02201,117.99174 99.750626,117.60025 99.122453,117.48231 C 98.494285,117.36433 91.864661,117.20769 84.403266,117.17565 L 70.910676,117.17565 L 73.466091,113.90472 C 75.394368,111.40862 77.299077,108.92263 78.576922,106.03405 C 78.920607,104.7344 79.10536,104.85048 80.314604,105.2163 z"
       id="path3527" />
    <path
       id="path3581"
       d="M 65.34979,120.81463 C 66.160094,120.12886 65.645015,127.20629 56.375709,131.46613 C 55.8845,128.72291 57.151504,129.14943 56.498139,126.68179 C 55.710443,125.29934 56.044788,124.39419 56.600355,123.81972 C 57.155924,123.24525 58.016376,123.07677 58.133604,123.00199 C 60.489865,121.49896 63.971159,121.1871 65.34979,120.81463 z"
       style="opacity:1;fill:#c7c528;fill-opacity:1;fill-rule:nonzero;stroke:#000000;stroke-width:0;stroke-miterlimit:4;stroke-dasharray:none;stroke-opacity:1"
       sodipodi:nodetypes="cccssc" />
    <path
       id="path3583"
       d="M 115.75816,179.44596 C 115.24377,180.84989 115.35223,182.4354 115.09884,183.87707 C 114.97217,184.5979 114.4292,185.16018 114.04607,185.66075 C 113.66296,186.16134 113.1624,186.55573 112.3084,186.68292 C 103.85819,187.9414 101.01426,188.39294 98.713588,188.42061 C 96.412909,188.44827 94.54338,188.49099 88.07286,188.10876 C 87.168042,188.05531 87.581518,186.07491 87.367547,184.74082 C 87.104339,183.09973 85.712463,182.57963 84.709916,180.65194 C 97.712291,190.12571 116.74684,179.09938 115.75816,179.44596 z"
       style="opacity:1;fill:#c7c528;fill-opacity:1;fill-rule:nonzero;stroke:#000000;stroke-width:0;stroke-miterlimit:4;stroke-dasharray:none;stroke-opacity:1"
       sodipodi:nodetypes="csssssscc" />
    <path
       id="path3587"
       d="M 78.853154,104.31695 C 84.625633,106.06334 91.723782,108.50436 97.589205,109.71384 C 100.82206,110.38047 104.15068,111.16776 107.50422,111.3493 C 110.79128,111.52724 114.00159,111.05894 117.20458,110.51117 C 119.31265,110.15065 121.13529,109.84832 123.33758,108.97792 C 124.82231,108.39112 125.64353,108.1209 126.00541,108.07837 C 126.3673,108.03585 126.38375,108.3674 126.5165,109.30497 C 126.29649,110.11301 109.22796,118.06792 95.538036,115.31394 C 88.209288,113.83961 83.685628,110.37591 78.853154,104.31695 z"
       style="opacity:1;fill:#c7c528;fill-opacity:1;fill-rule:nonzero;stroke:#000000;stroke-width:0;stroke-miterlimit:4;stroke-dasharray:none;stroke-opacity:1"
       sodipodi:nodetypes="cssssscsc" />
    <path
       style="fill:#bbbbbb;fill-opacity:1;fill-rule:nonzero;stroke:#000000;stroke-width:0;stroke-miterlimit:4;stroke-opacity:1"
       d="M 56.02825,131.32167 C 52.399421,132.35487 49.985417,133.20717 49.907337,130.68572 C 49.856982,127.75416 48.894901,117.9275 50.543277,117.17201 C 53.137725,115.98292 57.219096,126.86609 56.02825,131.32167 z"
       id="path3601"
       sodipodi:nodetypes="ccsc" />
    <path
       style="fill:#000000;fill-opacity:1"
       d="M 71.875998,228.86667 C 71.430164,228.32947 70.690452,226.90379 70.232202,225.6985 L 69.399017,223.50706 L 66.915884,225.91381 C 65.550154,227.23752 64.034513,228.32056 63.547783,228.32056 C 63.061055,228.32056 62.24464,226.86435 61.733528,225.08454 C 61.222416,223.30471 60.733346,221.74437 60.646707,221.61711 C 60.560065,221.48985 59.33696,222.08817 57.928697,222.94674 C 54.584592,224.98551 52.703241,224.97322 52.703241,222.91258 C 52.703241,222.0321 53.735162,218.23163 54.996396,214.46709 L 57.289547,207.62249 L 55.442539,205.42746 C 54.426683,204.22017 53.18839,201.99876 52.690773,200.49096 C 51.691967,197.46456 51.353456,189.26426 51.941821,182.34781 L 52.322532,177.8724 L 48.228948,176.81852 C 37.798293,174.13315 23.798208,163.50481 20.961418,156.11805 C 15.125331,140.92132 28.776208,124.72666 42.565444,130.48815 C 44.082023,131.12183 45.42041,131.54273 45.539632,131.42352 C 45.658858,131.30428 46.687455,127.54525 47.825408,123.07009 L 49.894409,114.93342 L 47.823566,110.31897 C 46.684602,107.78102 44.385353,101.34207 42.71413,96.010178 C 39.774234,86.630726 38.562738,83.693626 35.516446,78.560445 C 33.814513,75.692583 34.093755,75.277464 38.08499,74.742131 C 40.945017,74.358516 41.126839,74.175355 41.514173,71.287565 C 42.092108,66.978721 42.878089,66.458968 46.577576,67.939209 C 48.288519,68.623788 49.943198,69.183901 50.254643,69.183901 C 50.56609,69.183901 51.672732,67.80492 52.713849,66.119497 C 53.769143,64.411128 55.101766,63.150226 55.725352,63.270066 C 56.371165,63.394178 57.497488,65.627308 58.390321,68.553806 C 59.240844,71.341633 61.135963,75.279329 62.601693,77.304242 L 65.266664,80.985903 L 65.469569,78.701646 C 66.494633,67.161768 69.644307,59.124574 75.616035,52.810357 C 84.483708,43.434101 102.56904,38.71041 116.17187,42.217619 C 130.86649,46.006328 141.82097,57.709729 143.05645,70.940231 C 143.42311,74.86649 143.9212,76.343383 145.32281,77.660139 C 147.78263,79.97102 147.80226,84.594637 145.36212,86.923261 C 144.3957,87.845523 142.79645,89.970653 141.80827,91.645774 C 140.82007,93.3209 138.83133,96.166448 137.38886,97.969215 C 135.9464,99.771983 134.89102,101.3718 135.04357,101.52435 C 135.6012,102.08198 153.7285,96.439438 158.36461,94.265126 C 165.08314,91.114182 165.4833,91.211755 165.22576,95.938083 L 165.01261,99.849681 L 168.05224,100.71966 C 172.2998,101.93533 172.34933,103.63709 168.26179,107.91588 C 166.40873,109.85562 163.10483,113.7384 160.91981,116.54429 C 156.72623,121.92942 149.29778,128.08449 144.835,129.87184 L 142.17003,130.93917 L 142.17003,138.70357 C 142.17003,142.97399 141.88464,148.35247 141.53582,150.65577 C 140.90759,154.80399 140.9203,154.84462 142.88015,154.95413 C 145.56355,155.10405 148.55436,157.17862 149.43809,159.50305 C 150.0259,161.04907 150.49596,161.31275 151.87872,160.87196 C 155.56746,159.69607 155.88996,159.94582 155.64711,163.79026 C 155.52142,165.77947 155.69275,167.39208 156.0278,167.37384 C 156.36286,167.35562 158.06896,167.0634 159.81912,166.72453 C 164.27119,165.86244 165.04105,166.52489 164.06342,170.37647 L 163.271,173.49836 L 166.2596,173.49836 C 172.6256,173.49836 170.72033,178.01764 159.68268,189.09882 C 150.55543,198.26204 144.85355,201.66139 137.63954,202.24047 C 133.18717,202.59786 132.76394,202.48381 130.20494,200.23697 C 127.05445,197.47081 125.0381,193.64101 125.0381,190.42324 C 125.0381,188.18396 124.98717,188.15708 119.77197,187.64319 C 115.90563,187.2622 113.38786,187.44926 110.30003,188.34692 C 105.5765,189.7201 95.263577,190.18108 89.879516,189.25972 L 86.319849,188.65056 L 83.973358,193.56719 C 81.670731,198.39192 81.65154,198.52681 82.946806,200.78367 C 84.584604,203.63738 84.026658,206.05762 78.485616,220.1353 C 74.79451,229.513 73.658197,231.01408 71.875998,228.86667 z M 77.707284,219.37389 C 82.122086,208.10769 83.359672,203.83857 82.70524,202.13313 C 82.144762,200.67255 81.135273,200.53816 80.662744,201.86124 C 80.475787,202.38471 80.054587,202.56312 79.726738,202.25771 C 79.39889,201.9523 80.722537,198.4097 82.668176,194.3853 C 84.613812,190.36088 86.205699,186.5291 86.205699,185.87022 C 86.205699,181.78744 75.490916,170.4615 68.097824,166.72948 C 62.404586,163.85553 59.416072,163.68013 57.813566,166.12587 C 55.179793,170.14551 53.306035,178.36369 52.904603,187.65626 C 52.457598,198.00365 53.110508,201.10875 56.559129,205.03649 L 58.730968,207.51009 L 56.515076,212.95518 C 55.296333,215.94996 54.066265,219.64183 53.781582,221.1593 C 53.286125,223.80031 53.341569,223.89424 55.077515,223.3546 C 56.07496,223.04452 57.809249,222.14431 58.931497,221.3541 C 61.195072,219.76027 61.416378,219.92159 62.220985,223.75204 C 63.079922,227.84113 63.327214,227.90325 66.482397,224.82229 C 68.10166,223.24112 69.536795,222.0965 69.671577,222.27868 C 69.806355,222.46086 70.549963,224.06612 71.324028,225.84594 C 72.0981,227.62576 72.995042,229.08197 73.317236,229.08197 C 73.639431,229.08197 75.614952,224.71334 77.707284,219.37389 z M 146.24908,198.53585 C 153.8371,194.81954 170.44442,177.65 168.88756,175.13098 C 168.63618,174.72425 167.01992,174.55352 165.29585,174.75159 L 162.16119,175.11171 L 162.67978,172.3474 C 162.965,170.82706 163.38626,169.0935 163.61589,168.49507 C 164.11993,167.18152 161.01921,167.02082 157.06311,168.1554 C 155.62789,168.56702 154.34499,168.79519 154.21222,168.66242 C 154.07947,168.52967 154.2695,166.82232 154.63455,164.86834 C 155.20511,161.8143 155.12313,161.31566 154.05049,161.31566 C 152.53388,161.31566 147.62841,164.49434 144.27534,167.64982 C 142.92058,168.92475 141.61671,169.77247 141.37789,169.53364 C 141.13905,169.2948 142.8428,167.43371 145.16397,165.39788 C 147.48516,163.36203 149.38863,161.46569 149.39391,161.18372 C 149.39919,160.90176 148.51647,159.61686 147.43228,158.3284 C 145.76635,156.34855 144.92788,155.98572 142.01857,155.98572 C 134.94185,155.98572 123.46036,164.60212 119.35449,172.9942 C 117.48228,176.82087 115.24033,185.31554 115.93948,185.93361 C 116.12775,186.10003 118.01348,186.45683 120.12999,186.72647 C 123.81407,187.19586 124.01356,187.12718 124.80784,185.11644 C 125.58269,183.15487 125.64287,183.26799 125.71852,186.82821 C 125.76305,188.92489 126.13542,191.81153 126.54594,193.24298 C 127.35045,196.04814 130.57205,199.89082 133.033,200.98066 C 135.53421,202.08831 141.0966,201.05935 146.24908,198.53585 z M 112.28431,186.66087 C 115.70028,186.15212 114.49146,182.04377 115.52024,179.23588 C 116.58905,176.23503 116.57774,176.19416 113.61888,172.35894 C 111.9818,170.23697 109.78771,167.69792 108.74319,166.7166 L 106.84401,164.93243 L 101.66443,168.31248 C 98.815673,170.17151 93.829411,173.33354 90.583859,175.33923 C 87.338311,177.3449 84.682859,179.25113 84.682859,179.57529 C 85.685405,181.50299 87.058561,183.0923 87.32177,184.73336 C 87.535745,186.06748 87.256058,187.5943 88.160875,187.64776 C 101.10191,188.41223 95.383898,189.17781 112.28431,186.66087 z M 93.617402,172.17148 C 107.33723,163.72322 107.25667,163.81707 107.8701,155.56545 C 108.14868,151.81818 108.59096,147.85905 108.75266,146.75065 C 108.8845,145.84686 108.88616,144.70975 108.97021,144.38424 C 108.66389,144.2495 107.71634,144.53605 106.61388,144.36673 C 105.23105,144.15435 99.644745,143.95046 94.200603,143.909 L 84.302148,143.83361 L 77.068662,154.18608 C 73.090249,159.87993 69.730755,164.81195 69.60313,165.14609 C 69.475501,165.48024 70.90926,166.81193 72.789261,168.10539 C 74.669261,169.39888 77.828535,172.16936 79.809875,174.26202 C 81.791212,176.35469 83.554297,178.06687 83.727833,178.06687 C 83.901371,178.06687 88.351678,175.41394 93.617402,172.17148 z M 53.531559,173.57533 C 54.343643,170.86483 54.256868,170.3847 52.533856,168.05505 C 48.03516,161.97241 44.927457,150.44499 44.92344,139.8257 C 44.92108,133.573 44.787105,132.9804 43.130431,131.8949 C 38.175958,128.64862 30.420425,130.27266 25.647271,135.55595 C 22.025563,139.56477 20.723623,142.81053 20.723623,147.83071 C 20.723623,159.09841 29.061874,168.04881 36.066531,164.30004 C 41.084513,161.6145 40.839619,149.2285 35.701974,145.86217 C 33.067301,144.13587 31.460951,144.22621 29.338665,146.21998 C 26.140939,149.22408 27.260258,154.69087 31.383499,156.20695 C 32.173847,156.49757 32.034305,156.64542 30.930442,156.68702 C 26.028891,156.87172 24.582743,146.98158 29.153611,144.53533 C 33.104606,142.4208 37.574365,144.46857 39.824782,149.42418 C 41.44963,153.00222 41.60064,155.18844 40.497319,159.16082 C 39.436318,162.9808 37.624593,164.99839 34.203963,166.16922 L 31.313784,167.15851 L 34.220985,169.0824 C 40.132251,172.99429 47.90419,176.35866 51.340192,176.4931 C 52.212606,176.52724 52.935543,175.56467 53.531559,173.57533 z M 123.9941,164.71446 C 125.61526,163.02416 127.94167,160.93045 129.16394,160.06177 L 131.38622,158.48234 L 128.89915,152.31248 C 127.48136,148.79529 125.87119,145.98333 125.15402,145.77206 C 124.4621,145.56825 120.72656,145.17171 116.85283,144.89087 L 110.04203,144.38025 L 109.80971,147.18178 C 109.80971,148.72263 109.41932,153.15992 108.94218,157.04243 L 108.07468,164.10156 L 112.55118,169.46111 L 117.02768,174.82068 L 119.03712,171.3042 C 120.14233,169.37014 122.37297,166.40474 123.9941,164.71446 z M 56.394251,166.63211 C 57.170597,164.87822 57.214592,163.77001 56.580124,161.94997 C 55.531114,158.94077 55.511827,153.34795 56.538528,149.88933 C 57.730545,145.87381 57.602088,138.64035 56.247688,133.51136 C 55.582357,130.99181 54.878393,127.30058 54.683326,125.30861 C 54.267132,121.05853 51.344785,115.67036 50.326881,117.27627 C 49.33001,118.84902 49.537206,124.83081 50.85257,132.45295 C 52.030717,139.27996 51.930677,142.5139 50.30715,150.08413 C 48.968572,156.3257 50.38056,163.87706 53.653054,167.97807 C 54.787954,169.40031 55.27473,169.16129 56.394251,166.63211 z M 75.545825,154.71991 C 79.524241,149.03049 82.890552,144.08429 83.026515,143.72835 C 83.268014,143.09613 68.555581,123.43059 66.867401,121.78649 C 65.059414,120.02573 62.805138,121.82569 58.09262,122.96629 C 57.822039,123.03051 54.947368,123.91384 56.52276,126.67874 C 57.176123,129.14638 57.270507,132.30233 57.761716,135.04555 C 58.954556,140.78468 58.990973,142.1333 58.085515,147.03567 C 56.404306,156.13812 56.341381,157.09906 57.214257,160.34068 C 57.857727,162.73036 58.360582,163.37172 59.381399,163.10478 C 60.112484,162.91358 62.078389,163.24948 63.750077,163.8512 C 65.421757,164.45291 67.132141,164.97203 67.55092,165.00478 C 67.969702,165.03751 71.567408,160.40932 75.545825,154.71991 z M 136.27695,156.17607 C 140.41269,154.4856 141.23511,151.93365 141.30817,140.5642 C 141.35731,132.91848 141.23045,132.27484 139.56562,130.66576 C 138.0789,129.22879 138.51389,128.53626 137.81024,129.99881 C 137.10661,131.46134 136.16936,132.76504 135.21984,134.06683 C 134.0893,135.86209 131.81699,139.11884 130.17022,141.30406 L 127.17613,145.27717 L 129.72384,151.3737 C 131.12509,154.72678 132.4393,157.47884 132.64429,157.48938 C 132.84928,157.49992 134.48397,156.90894 136.27695,156.17607 z M 129.41633,140.54015 C 131.08742,138.32679 133.52735,134.61519 134.83841,132.29214 L 137.22212,128.06845 L 134.74685,125.25269 C 132.51617,122.7152 131.66965,122.33456 126.18023,121.40085 C 122.82997,120.83097 117.59496,120.12035 114.54688,119.8217 L 109.00487,119.27866 L 109.49395,122.33721 C 109.76295,124.01942 110.0297,129.36643 110.08672,134.21947 L 110.19041,143.04317 L 112.47468,143.42023 C 114.64507,143.77851 118.74436,144.13832 123.99483,144.43139 C 126.04516,144.54585 126.80227,144.00242 129.41633,140.54015 z M 108.8805,131.96439 C 108.60538,123.68694 108.2314,120.57862 107.41195,119.75919 C 105.97052,118.31775 69.319055,117.76527 67.908476,119.16371 C 67.250025,119.81648 68.618785,122.08393 73.424145,128.30074 C 76.939447,132.84857 80.785806,137.94006 81.971614,139.6152 L 84.127624,142.66087 L 96.688619,142.86551 L 109.06892,143.07015 L 108.8805,131.96439 z M 144.22205,129.00328 C 148.76841,127.1037 156.04022,121.07118 160.15838,115.78288 C 162.34341,112.97699 165.65487,109.08652 167.51719,107.13738 C 169.37948,105.18825 170.70023,103.26506 170.45213,102.86366 C 170.20405,102.46226 168.45036,101.69966 166.55506,101.16901 C 164.65976,100.63836 163.11098,99.991749 163.11332,99.732081 C 163.11564,99.472423 163.48327,97.942941 163.93023,96.333247 C 164.37721,94.723552 164.58129,93.244901 164.38375,93.047359 C 164.18621,92.849817 162.01975,93.696027 159.56938,94.927821 C 157.11902,96.159613 153.91492,97.416171 152.4492,97.720165 C 146.30313,98.994884 131.34572,104.32387 129.31099,105.96378 C 127.1904,107.6729 127.14582,107.84327 128.06331,110.73159 C 129.69523,115.869 133.90065,122.74382 137.70682,126.49636 C 139.71576,128.47696 141.4143,130.09746 141.48138,130.09746 C 141.54846,130.09746 142.78176,129.60509 144.22205,129.00328 z M 158.54056,107.55481 C 158.54056,107.301 159.42158,106.40031 160.49841,105.55328 C 162.70514,103.81746 162.26227,102.95399 158.92126,102.47832 C 157.07774,102.21585 157.25271,102.1311 159.82809,102.03903 C 161.58319,101.97627 163.21303,102.23857 163.44993,102.62189 C 163.93041,103.39933 160.32233,108.01629 159.23428,108.01629 C 158.85272,108.01629 158.54056,107.80863 158.54056,107.55481 z M 65.920572,118.81071 C 72.186598,115.44092 78.557128,106.44822 77.5424,102.40522 C 76.875864,99.749507 70.180135,89.025645 64.193905,81.026284 C 60.143993,75.61441 58.391989,72.525998 57.561035,69.333949 C 56.939959,66.948129 56.141264,64.705017 55.786156,64.349254 C 55.431054,63.993488 54.205368,65.298111 53.062413,67.248417 C 51.91946,69.198719 50.600134,70.634491 50.130586,70.439017 C 49.661035,70.243543 47.986147,69.53151 46.40862,68.856724 C 43.550918,67.634344 43.537639,67.637065 42.791881,69.598567 C 42.380194,70.681367 42.043371,72.356477 42.043371,73.321023 C 42.043371,74.79725 41.55149,75.140721 38.934809,75.491692 C 37.225102,75.721014 35.659786,76.075099 35.456341,76.278547 C 35.252889,76.481995 36.309102,78.250243 37.80348,80.207986 C 39.297855,82.165725 40.520529,84.401557 40.520529,85.176494 C 40.520529,87.276257 46.066432,103.84273 48.724108,109.68186 C 49.998782,112.48243 52.134139,116.36161 53.469333,118.30224 C 55.851755,121.76498 55.955841,121.82109 59.058973,121.3155 C 60.798082,121.03213 63.885798,119.90499 65.920572,118.81071 z M 131.12946,120.64808 C 131.12946,120.4763 130.10181,118.16347 128.84579,115.5085 C 127.58978,112.85352 126.66428,110.07441 126.56153,109.34877 C 126.29602,107.47363 126.46597,107.99449 123.49653,109.1681 C 121.29426,110.03852 119.40719,110.35607 117.29914,110.71659 C 114.09613,111.26438 110.81251,111.55365 107.52544,111.37571 C 104.1719,111.19417 100.86474,110.36276 97.631871,109.69612 C 91.766448,108.48665 86.077178,106.9985 80.304698,105.25213 C 79.095452,104.88628 78.93519,104.7243 78.591503,106.02395 C 77.313655,108.91253 75.418922,111.42119 73.490646,113.91729 L 70.875355,117.15333 L 84.441526,117.21158 C 91.902926,117.24362 98.52166,117.36635 99.149828,117.48433 C 99.778003,117.60227 104.06098,117.95104 108.66758,118.25934 C 113.27417,118.56762 119.7843,119.2605 123.13455,119.79905 C 130.47776,120.97949 131.12946,121.0487 131.12946,120.64808 z M 116.7008,109.22173 C 126.942,107.39456 133.37718,102.938 139.53769,93.406488 C 142.52608,88.78286 142.94389,85.252148 140.00742,89.436929 C 137.02641,93.685191 131.6361,98.318853 127.40292,100.27212 C 121.03021,103.21262 110.79956,103.50267 102.8826,100.9673 C 96.221966,98.834265 89.601105,94.708819 85.901035,90.386121 C 82.746335,86.70056 77.510842,76.57154 78.032598,75.163186 C 78.411405,74.140686 78.653968,74.539959 79.692711,77.895862 C 79.879596,78.499629 80.983226,79.613205 82.145228,80.370474 C 84.000572,81.579584 85.765428,81.722618 96.631839,81.544536 C 108.18003,81.355279 109.37194,81.469698 114.49405,83.259259 C 119.53378,85.020038 120.33817,85.103283 124.33515,84.27772 C 128.1847,83.482609 129.42323,83.571646 135.04827,85.047896 C 138.54646,85.965967 142.1675,86.712492 143.09502,86.706833 C 146.46222,86.686299 147.44679,81.481771 144.64722,78.501765 C 143.40526,77.179757 142.70324,75.047738 142.08488,70.71983 C 140.98158,62.998009 138.6968,58.365547 133.44098,53.194094 C 126.33389,46.201085 115.8701,41.8253 106.16086,41.786023 C 96.421244,41.746624 82.590249,46.871018 76.795264,52.666001 C 71.317312,58.143951 67.532528,66.922744 66.676127,76.137296 L 66.197832,81.283551 L 70.892334,88.337582 C 73.474308,92.217295 76.348547,97.008688 77.279523,98.985113 C 78.668737,101.93435 79.612955,102.85055 82.546045,104.0953 C 88.795883,106.74762 99.828964,109.17365 110.19041,110.17392 C 110.6092,110.21435 113.53886,109.78586 116.7008,109.22173 z M 121.99242,79.937008 C 121.99242,78.96334 124.23127,77.26031 124.7843,77.813323 C 125.33731,78.366333 123.63427,80.605193 122.6606,80.605193 C 122.29309,80.605193 121.99242,80.30451 121.99242,79.937008 z M 114.11552,78.451338 C 112.64037,76.821313 112.51289,76.036678 113.72322,76.036678 C 114.60916,76.036678 116.5945,78.240621 116.63827,79.272708 C 116.68151,80.292539 115.40594,79.877224 114.11552,78.451338 z M 131.35391,75.955074 C 127.93673,74.966983 126.56093,72.639866 126.56093,67.847896 C 126.56093,60.720663 129.52732,56.02678 133.02453,57.620214 C 136.10846,59.02534 138.24306,64.208724 138.16822,70.110389 C 138.13255,72.923253 137.88456,75.578702 137.61714,76.011388 C 137.03898,76.946884 134.7116,76.925959 131.35391,75.955074 z M 137.14491,72.755709 C 137.07243,70.435376 137.04158,70.411702 136.45938,72.22958 C 135.58378,74.963695 135.58378,76.197131 136.45938,75.655968 C 136.87817,75.397145 137.18666,74.092031 137.14491,72.755709 z M 133.18105,61.831317 C 134.40506,59.963257 134.39802,59.808711 133.04389,58.818549 C 131.82212,57.925169 131.42682,57.946537 130.29935,58.966895 C 128.82807,60.298379 127.79665,63.534808 128.48739,64.652462 C 129.13341,65.697724 131.6315,64.196236 133.18105,61.831317 z M 86.776765,71.40717 C 85.748597,70.808322 85.444276,69.616195 85.444276,66.187337 C 85.444276,54.83278 95.975288,46.414336 100.62163,54.054635 C 102.43594,57.038043 103.2182,62.231954 102.56665,66.969197 C 102.08991,70.435532 101.87832,70.723035 99.271032,71.447219 C 95.707225,72.437079 88.505375,72.413998 86.776765,71.40717 z M 88.40736,68.61284 C 87.670631,66.699666 87.950466,61.20488 88.950709,57.943691 C 89.173929,57.215925 88.835766,57.477081 88.199247,58.52403 C 85.771143,62.517785 85.707729,70.70674 88.10491,70.70674 C 89.002342,70.70674 89.059992,70.307627 88.40736,68.61284 z M 94.504878,59.705687 C 96.621658,58.611057 99.383461,54.188121 98.670513,53.034552 C 97.970255,51.901506 93.306262,52.419617 92.093679,53.765161 C 90.650489,55.366592 89.676186,58.886223 90.366758,60.003593 C 91.034941,61.08474 91.967977,61.017569 94.504878,59.705687 z M 125.07001,59.475804 C 125.12172,58.550223 128.0169,53.507555 128.05185,54.282165 C 128.11151,55.604339 126.25789,60.046868 125.64655,60.046868 C 125.31191,60.046868 125.05246,59.78989 125.07001,59.475804 z M 101.89425,52.36315 C 100.47596,49.52014 100.45125,49.386999 101.34172,49.386999 C 102.15513,49.386999 104.0869,53.840758 103.51956,54.408098 C 103.29751,54.630162 102.5661,53.709938 101.89425,52.36315 z M 126.61124,99.176113 C 132.36874,96.592292 133.696,95.152379 132.71019,92.559487 C 131.66892,89.820756 127.82204,88.862331 121.77772,89.835736 C 119.19492,90.251688 116.9561,90.717634 116.80256,90.871184 C 116.649,91.024733 114.92715,90.665923 112.97618,90.073827 C 108.20921,88.627102 99.650636,88.67171 96.51508,90.15963 C 95.148777,90.807984 93.666549,92.138109 93.221237,93.115462 C 92.4776,94.747562 92.701832,95.047449 95.971056,96.792977 C 99.453864,98.652546 105.25302,100.71621 109.04828,101.44659 C 113.43512,102.29082 122.19383,101.15852 126.61124,99.176113 z"
       id="path2453"
       sodipodi:nodetypes="ccccssssscccscccssscccssssssssscccssssssssscccsscccssssssscccsssssscccssccsssssssscccssssssssccscccsssssssssssssssssscccscccscssscsscscccssssccssssssssssssscccscccccsccccccccccssssssssccsscccsssssccsszccccscccccsccccccsccsssccccccsssssssssssssccsssssccssssssssssssssssccsssssssccccsssccsssssssssssssssssscccsssccssccssccssssccssccsssccssssccsssccsssccssccssccssssssssc" />
    <path
       sodipodi:nodetypes="ccc"
       id="path3643"
       d="M 128.5253,34.976886 C 123.22292,33.501538 120.52401,27.55073 100.75987,30.819566 C 121.3649,33.647887 109.74109,30.57795 128.5253,34.976886 z"
       style="fill:url(#linearGradient3635);fill-opacity:1;fill-rule:nonzero;stroke:#000000;stroke-width:0.79667163;stroke-miterlimit:4;stroke-dasharray:none;stroke-opacity:1" />
    <path
       style="fill:url(#linearGradient3647);fill-opacity:1;fill-rule:nonzero;stroke:#000000;stroke-width:0.79667163;stroke-miterlimit:4;stroke-dasharray:none;stroke-opacity:1"
       d="M 148.23941,42.608155 C 144.64259,48.515182 139.53572,56.887009 138.47116,57.35383 C 126.29893,49.79025 102.38758,49.904983 81.477825,47.080442 C 81.223477,41.591503 80.975446,44.325115 80.409822,29.070733 C 99.834677,31.578213 128.95937,30.608121 148.23941,42.608155 z"
       id="path3626"
       sodipodi:nodetypes="ccccc" />
    <path
       style="fill:#cc6600;fill-opacity:1;fill-rule:nonzero;stroke:#000000;stroke-width:0;stroke-miterlimit:4;stroke-dasharray:none;stroke-opacity:1"
       d="M 50.69392,141.34573 C 50.48992,143.15317 48.311505,153.32607 48.952441,156.79567 C 50.034911,162.65541 49.325351,160.11974 48.052068,156.69095 C 47.752792,155.88504 46.249574,149.07491 45.916103,141.85161 C 45.672616,136.57748 46.931618,130.84059 47.208925,129.26067 C 48.071494,124.34625 48.638708,120.82649 49.272459,128.26256 C 49.600623,132.11303 50.76873,140.68291 50.69392,141.34573 z"
       id="path3596"
       sodipodi:nodetypes="cssssss" />
    <text
       xml:space="preserve"
       style="font-size:22px;font-style:normal;font-variant:normal;font-weight:bold;font-stretch:normal;text-align:center;text-anchor:middle;fill:#000000;fill-opacity:1;stroke:none;stroke-width:1px;stroke-linecap:butt;stroke-linejoin:miter;stroke-opacity:1;font-family:Impact;-inkscape-font-specification:Impact Bold"
       x="96.303299"
       y="255.03717"
       id="text3571"><tspan
         sodipodi:role="line"
         x="96.303299"
         y="255.03717"
         id="tspan3645">Squirtle</tspan><tspan
         sodipodi:role="line"
         x="96.303299"
         y="282.53717"
         id="tspan3651">The Cabin Boy</tspan></text>
    <path
       style="fill:#ac1020;fill-opacity:1;fill-rule:nonzero;stroke:#000000;stroke-width:0;stroke-miterlimit:4;stroke-opacity:1"
       d="M 101.02095,65.025009 C 101.02095,66.103354 101.48173,68.966951 100.53904,70.108539 C 99.640455,71.196708 97.130493,70.822464 96.092413,71.225416 C 94.532445,71.83095 92.201036,71.810362 91.294112,71.104432 C 90.03625,70.125338 89.663044,67.096413 90.845916,65.025009 C 91.560524,63.234563 92.186935,68.996464 96.092413,68.681659 C 98.283373,68.505056 100.85654,65.056106 101.02095,65.025009 z"
       id="path3575"
       sodipodi:nodetypes="cssscsc" />
    <path
       style="fill:#ac1020;fill-opacity:1;fill-rule:nonzero;stroke:#000000;stroke-width:0;stroke-miterlimit:4;stroke-opacity:1"
       d="M 135.04369,69.953537 C 134.4098,72.378393 135.03178,75.504893 134.08977,75.597497 C 132.3497,75.768558 130.06476,74.980898 129.00227,73.37171 C 128.13187,72.053462 128.4261,69.953536 129.47922,69.953536 C 131.87694,76.430314 135.00679,71.546852 135.04369,69.953537 z"
       id="path3578"
       sodipodi:nodetypes="csscc" />
    <path
       id="path3585"
       d="M 138.37362,129.23721 C 138.53866,129.40714 138.85687,129.94977 139.60021,130.66824 C 140.43264,131.47279 140.79757,132.00811 141.03126,133.32587 C 139.11267,133.03853 137.165,130.64723 138.37362,129.23721 z"
       style="opacity:1;fill:#c7c528;fill-opacity:1;fill-rule:nonzero;stroke:#000000;stroke-width:0;stroke-miterlimit:4;stroke-dasharray:none;stroke-opacity:1"
       sodipodi:nodetypes="cscc" />
    <path
       style="fill:#e56699;fill-opacity:1;fill-rule:nonzero;stroke:#000000;stroke-width:0;stroke-miterlimit:4;stroke-opacity:1"
       d="M 135.45801,86.091688 C 143.41372,87.099702 139.10239,88.746821 134.87723,93.386098 C 130.38456,98.319113 123.77979,101.66143 115.72843,101.88658 C 100.83478,102.30309 88.395846,94.427149 82.853651,84.059922 C 82.648783,83.676697 80.573397,80.042543 80.894217,80.513622 C 82.910911,83.474854 100.21691,82.506697 106.28522,82.606692 C 111.79472,82.69748 116.75628,85.652261 119.3183,85.761567 C 122.25457,85.886841 125.56394,84.590065 129.2214,84.811962 C 131.4178,84.945218 134.63694,85.987657 135.45801,86.091688 z"
       id="path3589"
       sodipodi:nodetypes="cssssssss" />
    <path
       sodipodi:nodetypes="cssscsssssss"
       id="path3592"
       d="M 135.45801,86.091688 C 142.92023,87.346447 139.64733,87.704161 135.57985,92.430535 C 133.93218,94.34511 137.00503,86.142183 118.63311,91.163643 C 116.42985,91.765843 104.84907,86.292183 98.696925,87.440719 C 90.19481,89.027965 92.40941,94.116017 91.334072,94.095172 C 90.258735,94.074326 90.224612,92.856433 89.028489,92.050196 C 84.831326,89.221132 84.374632,86.960758 82.853651,84.059922 C 82.651862,83.675068 80.573397,80.042543 80.894217,80.513622 C 82.910911,83.474854 100.21691,82.506697 106.28522,82.606692 C 111.79472,82.69748 116.75628,85.652261 119.3183,85.761567 C 122.25457,85.886841 125.56394,84.590065 129.2214,84.811962 C 131.4178,84.945218 134.64184,85.954451 135.45801,86.091688 z"
       style="fill:#c5336d;fill-opacity:1;fill-rule:nonzero;stroke:#000000;stroke-width:0;stroke-miterlimit:4;stroke-opacity:1" />
    <path
       style="fill:#6d1c3c;fill-opacity:1;fill-rule:nonzero;stroke:#000000;stroke-width:0.94963253;stroke-miterlimit:4;stroke-dasharray:none;stroke-opacity:1"
       d="M 135.45801,86.091688 C 143.41693,87.097301 140.09601,88.276335 135.32691,93.273679 C 134.88447,91.160618 134.64812,89.634803 134.02002,88.77825 C 133.42281,87.963819 132.90444,86.829745 129.05277,84.334181 C 131.24918,84.467436 134.6369,85.987941 135.45801,86.091688 z"
       id="path3594"
       sodipodi:nodetypes="ccscs" />
    <path
       sodipodi:nodetypes="ccc"
       id="path3604"
       d="M 47.040295,130.04759 C 47.972755,123.64468 48.924804,119.49608 49.609718,131.63514 C 47.988614,130.52302 49.522945,131.53241 47.040295,130.04759 z"
       style="fill:#924900;fill-opacity:1;fill-rule:nonzero;stroke:#000000;stroke-width:0;stroke-miterlimit:4;stroke-dasharray:none;stroke-opacity:1" />
    <path
       style="fill:none;fill-rule:evenodd;stroke:#000000;stroke-width:0.89935374px;stroke-linecap:butt;stroke-linejoin:miter;stroke-opacity:1"
       d="M 45.376272,142.45059 C 46.894237,144.36688 46.764995,146.92735 50.145816,148.65099"
       id="path3599"
       sodipodi:nodetypes="cc" />
  </g>
</svg>
